<svg width="1200" height="630" viewBox="0 0 1200 630" fill="none" xmlns="http://www.w3.org/2000/svg">
  <rect width="1200" height="630" fill="#F8F4EC"/>
  <rect x="52" y="52" width="1096" height="526" rx="40" fill="#FCFAF6" stroke="#E4DDD1"/>
  <path d="M824 203C824 127.2 869 48 948.2 48C974.4 48 994.8 55.4 1010 70.2" stroke="#2F2924" stroke-width="8" stroke-linecap="round"/>
  <path d="M930 13L961 59L907 60L930 13Z" fill="#2F2924"/>
  <path d="M1014 38L1022 92L978 66L1014 38Z" fill="#2F2924"/>
  <path d="M808 213C844 235 884 246 927 246C976 246 1010 225 1010 197C1010 184 1004 173 992 165" stroke="#A48A69" stroke-width="8" stroke-linecap="round"/>
  <text x="92" y="182" fill="#8A8176" font-family="Noto Sans JP, sans-serif" font-size="24" letter-spacing="7">FREELANCE PORTFOLIO FOR S</text>
  <text x="92" y="290" fill="#1F1A16" font-family="Noto Serif JP, serif" font-size="72">AI Writing and Python Research</text>
  <text x="92" y="380" fill="#1F1A16" font-family="Noto Serif JP, serif" font-size="72">for practical client work</text>
  <text x="92" y="470" fill="#5D554D" font-family="Noto Sans JP, sans-serif" font-size="28">Japanese / English review writing, sponsored content, data analysis, and notebooks.</text>
</svg>
