<svg width="1200" height="900" viewBox="0 0 1200 900" fill="none" xmlns="http://www.w3.org/2000/svg">
  <rect width="1200" height="900" fill="#F6F2EA"/>
  <rect x="80" y="92" width="1040" height="716" rx="32" fill="#FCFAF5" stroke="#E4DCCF"/>
  <rect x="136" y="158" width="260" height="476" rx="24" fill="#EFE7DA"/>
  <rect x="470" y="158" width="260" height="476" rx="24" fill="#EFE7DA"/>
  <rect x="804" y="158" width="260" height="476" rx="24" fill="#EFE7DA"/>
  <rect x="170" y="208" width="192" height="18" rx="9" fill="#B29D83"/>
  <rect x="504" y="208" width="192" height="18" rx="9" fill="#B29D83"/>
  <rect x="838" y="208" width="192" height="18" rx="9" fill="#B29D83"/>
  <rect x="170" y="270" width="160" height="112" rx="20" fill="#FBF8F2"/>
  <rect x="504" y="270" width="160" height="112" rx="20" fill="#FBF8F2"/>
  <rect x="838" y="270" width="160" height="112" rx="20" fill="#FBF8F2"/>
  <rect x="170" y="426" width="160" height="12" rx="6" fill="#CBC0B4"/>
  <rect x="504" y="426" width="160" height="12" rx="6" fill="#CBC0B4"/>
  <rect x="838" y="426" width="160" height="12" rx="6" fill="#CBC0B4"/>
  <rect x="170" y="462" width="120" height="12" rx="6" fill="#CBC0B4"/>
  <rect x="504" y="462" width="120" height="12" rx="6" fill="#CBC0B4"/>
  <rect x="838" y="462" width="120" height="12" rx="6" fill="#CBC0B4"/>
  <rect x="152" y="694" width="896" height="54" rx="27" fill="#1F1A16"/>
</svg>
